<svg width="500" height="750" viewBox="0 0 500 750" xmlns="http://www.w3.org/2000/svg" id="teeth-diagram">
    <title>Teeth</title>
    <g id="teeth-upper-right" transform="translate(3.000000, 2.000000)">
        <path tabindex="7" id="teeth-upper-right-7" d="M75,281 C82,290 74,314 78,324 C82,334 64,341 64,341 L20,336 C20,336 10.5779976,333.247961 10,324 C9.42200244,314.752039 14.1993605,305.851357 18,304 C14.1993605,290 11,281 23,274 C35,267 68,272 75,281 Z"></path>
        <path tabindex="6" id="teeth-upper-right-6" d="M86,237 C91,248 84.9199198,261 71,265 C57.0800802,269 44.7062362,271.260477 32,262 C19.2937638,252.739523 21,236 22,214 C23,192 19.7878204,188.641351 42,184 C64.2121796,179.358649 79.432417,190.251897 89,200 C98.567583,209.748103 93,225.686454 86,237 Z"></path>
        <path tabindex="5" id="teeth-upper-right-5" d="M91,130 C41,118 29,177 73,183 C91,179 106,168 106,168 L107,157 C107,157 97,140 91,130 Z"></path>
        <path tabindex="4" id="teeth-upper-right-4"d="M122,87 C113,84 97,81 84,86 C71,91 67,108 86,123 C105,138 109.768657,133.461753 119,130 C128.231343,126.538247 133,117 126,108 C119,99 131,90 122,87 Z"></path>
        <path tabindex="3" id="teeth-upper-right-3" d="M117,44 C126.439024,38.4939029 136.484377,36.805149 146,48 C155.515623,59.194851 156,68 151,82 C146,96 128.480975,84.7369422 121,82 C113.519025,79.2630578 102,80 110,69 C118,58 107.560976,49.5060971 117,44 Z"></path>
        <path tabindex="2" id="teeth-upper-right-2" d="M145,29 C149,23.3737956 164.554513,16 171,13 C177.445487,10 188.163074,7.50015602 191,22 C193.836926,36.499844 189,53 181,57 C173,61 155.390002,50.7084225 149,46 C142.609998,41.2915775 141,34.6262044 145,29 Z"></path>
        <path tabindex="1" id="teeth-upper-right-1" d="M196,4 C210,-4.6629367e-15 235,-1 242,3 C249,7 237,16 234,28 C231,40 208,47.9524633 204,34 C200,20.0475367 182,8 196,4 Z"></path>
    </g>
    <g id="teeth-upper-left" transform="translate(372.500000, 208.500000) scale(-1, 1) translate(-372.500000, -208.500000) translate(250.000000, 2.000000)">
        <path tabindex="14" id="teeth-upper-left-7" d="M75,281 C82,290 74,314 78,324 C82,334 64,341 64,341 L20,336 C20,336 10.5779976,333.247961 10,324 C9.42200244,314.752039 14.1993605,305.851357 18,304 C14.1993605,290 11,281 23,274 C35,267 68,272 75,281 Z"></path>
        <path tabindex="13" id="teeth-upper-left-6" d="M86,237 C91,248 84.9199198,261 71,265 C57.0800802,269 44.7062362,271.260477 32,262 C19.2937638,252.739523 21,236 22,214 C23,192 19.7878204,188.641351 42,184 C64.2121796,179.358649 79.432417,190.251897 89,200 C98.567583,209.748103 93,225.686454 86,237 Z"></path>
        <path tabindex="12" id="teeth-upper-left-5" d="M91,130 C41,118 29,177 73,183 C91,179 106,168 106,168 L107,157 C107,157 97,140 91,130 Z"></path>
        <path tabindex="11" id="teeth-upper-left-4" d="M122,87 C113,84 97,81 84,86 C71,91 67,108 86,123 C105,138 109.768657,133.461753 119,130 C128.231343,126.538247 133,117 126,108 C119,99 131,90 122,87 Z"></path>
        <path tabindex="10" id="teeth-upper-left-3" d="M117,44 C126.439024,38.4939029 136.484377,36.805149 146,48 C155.515623,59.194851 156,68 151,82 C146,96 128.480975,84.7369422 121,82 C113.519025,79.2630578 102,80 110,69 C118,58 107.560976,49.5060971 117,44 Z"></path>
        <path tabindex="9" id="teeth-upper-left-2" d="M145,29 C149,23.3737956 164.554513,16 171,13 C177.445487,10 188.163074,7.50015602 191,22 C193.836926,36.499844 189,53 181,57 C173,61 155.390002,50.7084225 149,46 C142.609998,41.2915775 141,34.6262044 145,29 Z"></path>
        <path tabindex="8" id="teeth-upper-left-1" d="M196,4 C210,-4.6629367e-15 235,-1 242,3 C249,7 237,16 234,28 C231,40 208,47.9524633 204,34 C200,20.0475367 182,8 196,4 Z"></path>
    </g>

    <g id="teeth-lower-right" transform="translate(135.500000, 704.157143) scale(1, -1) translate(-135.500000, -704.157143) translate(22.000000, 662.657143)">
        <path tabindex="21" id="teeth-lower-right-7" d="M69.4897959,260.355102 C75.9755102,268.693878 68.5632653,290.930612 72.2693878,300.195918 C75.9755102,309.461224 59.2979592,315.946939 59.2979592,315.946939 L18.5306122,311.314286 C18.5306122,311.314286 9.80083856,308.764437 9.26530612,300.195918 C8.72977369,291.627399 13.1561422,283.380645 16.677551,281.665306 C13.1561422,268.693878 10.1918367,260.355102 21.3102041,253.869388 C32.4285714,247.383673 63.0040816,252.016327 69.4897959,260.355102 Z"></path>
        <path tabindex="20" id="teeth-lower-right-6" d="M79.6816327,219.587755 C84.3142857,229.779592 78.6809053,241.82449 65.7836735,245.530612 C52.8864416,249.236735 41.4216964,251.331136 29.6489796,242.75102 C17.8762628,234.170905 19.4571429,218.661224 20.3836735,198.277551 C21.3102041,177.893878 18.3340214,174.781986 38.9142857,170.481633 C59.49455,166.181279 73.5965659,176.274206 82.4612245,185.306122 C91.325883,194.338039 86.1673469,209.105409 79.6816327,219.587755 Z"></path>
        <path tabindex="19" id="teeth-lower-right-5" d="M84.3142857,120.44898 C37.9877551,109.330612 26.8693878,163.995918 67.6367347,169.555102 C84.3142857,165.84898 98.2122449,155.657143 98.2122449,155.657143 L99.1387755,145.465306 C99.1387755,145.465306 89.8734694,129.714286 84.3142857,120.44898 Z"></path>
        <path tabindex="18" id="teeth-lower-right-4" d="M113.036735,80.6081633 C104.697959,77.8285714 89.8734694,75.0489796 77.8285714,79.6816327 C65.7836735,84.3142857 62.077551,100.065306 79.6816327,113.963265 C97.2857143,127.861224 101.704021,123.6564 110.257143,120.44898 C118.810264,117.241559 123.228571,108.404082 116.742857,100.065306 C110.257143,91.7265306 121.37551,83.3877551 113.036735,80.6081633 Z"></path>
        <path tabindex="17" id="teeth-lower-right-3" d="M108.404082,40.7673469 C117.149626,35.6657795 126.456953,34.1010972 135.273469,44.4734694 C144.089986,54.8458416 144.538776,63.0040816 139.906122,75.9755102 C135.273469,88.9469388 119.041557,78.5113709 112.110204,75.9755102 C105.178851,73.4396495 94.5061224,74.122449 101.918367,63.9306122 C109.330612,53.7387755 99.6585374,45.8689144 108.404082,40.7673469 Z"></path>
        <path tabindex="16" id="teeth-lower-right-2" d="M134.346939,26.8693878 C138.053061,21.6565371 152.464794,14.8244898 158.436735,12.044898 C164.408675,9.26530612 174.338848,6.94912415 176.967347,20.3836735 C179.595846,33.8182228 175.114286,49.1061224 167.702041,52.8122449 C160.289796,56.5183673 143.973594,46.9829057 138.053061,42.6204082 C132.132529,38.2579106 130.640816,32.0822384 134.346939,26.8693878 Z"></path>
        <path tabindex="15" id="teeth-lower-right-1" d="M181.6,3.70612245 C194.571429,8.38218384e-15 217.734694,-0.926530612 224.220408,2.77959184 C230.706122,6.48571429 219.587755,14.8244898 216.808163,25.9428571 C214.028571,37.0612245 192.718367,44.4294252 189.012245,31.5020408 C185.306122,18.5746565 168.628571,7.4122449 181.6,3.70612245 Z"></path>
    </g>
    <g id="teeth-lower-left" transform="translate(366.500000, 704.157143) scale(-1, -1) translate(-366.500000, -704.157143) translate(253.000000, 662.657143)">
        <path tabindex="28" id="teeth-lower-left-7" d="M69.4897959,260.355102 C75.9755102,268.693878 68.5632653,290.930612 72.2693878,300.195918 C75.9755102,309.461224 59.2979592,315.946939 59.2979592,315.946939 L18.5306122,311.314286 C18.5306122,311.314286 9.80083856,308.764437 9.26530612,300.195918 C8.72977369,291.627399 13.1561422,283.380645 16.677551,281.665306 C13.1561422,268.693878 10.1918367,260.355102 21.3102041,253.869388 C32.4285714,247.383673 63.0040816,252.016327 69.4897959,260.355102 Z"></path>
        <path tabindex="27" id="teeth-lower-left-6" d="M79.6816327,219.587755 C84.3142857,229.779592 78.6809053,241.82449 65.7836735,245.530612 C52.8864416,249.236735 41.4216964,251.331136 29.6489796,242.75102 C17.8762628,234.170905 19.4571429,218.661224 20.3836735,198.277551 C21.3102041,177.893878 18.3340214,174.781986 38.9142857,170.481633 C59.49455,166.181279 73.5965659,176.274206 82.4612245,185.306122 C91.325883,194.338039 86.1673469,209.105409 79.6816327,219.587755 Z"></path>
        <path tabindex="26" id="teeth-lower-left-5" d="M84.3142857,120.44898 C37.9877551,109.330612 26.8693878,163.995918 67.6367347,169.555102 C84.3142857,165.84898 98.2122449,155.657143 98.2122449,155.657143 L99.1387755,145.465306 C99.1387755,145.465306 89.8734694,129.714286 84.3142857,120.44898 Z"></path>
        <path tabindex="25" id="teeth-lower-left-4" d="M113.036735,80.6081633 C104.697959,77.8285714 89.8734694,75.0489796 77.8285714,79.6816327 C65.7836735,84.3142857 62.077551,100.065306 79.6816327,113.963265 C97.2857143,127.861224 101.704021,123.6564 110.257143,120.44898 C118.810264,117.241559 123.228571,108.404082 116.742857,100.065306 C110.257143,91.7265306 121.37551,83.3877551 113.036735,80.6081633 Z"></path>
        <path tabindex="24" id="teeth-lower-left-3" d="M108.404082,40.7673469 C117.149626,35.6657795 126.456953,34.1010972 135.273469,44.4734694 C144.089986,54.8458416 144.538776,63.0040816 139.906122,75.9755102 C135.273469,88.9469388 119.041557,78.5113709 112.110204,75.9755102 C105.178851,73.4396495 94.5061224,74.122449 101.918367,63.9306122 C109.330612,53.7387755 99.6585374,45.8689144 108.404082,40.7673469 Z"></path>
        <path tabindex="23" id="teeth-lower-left-2" d="M134.346939,26.8693878 C138.053061,21.6565371 152.464794,14.8244898 158.436735,12.044898 C164.408675,9.26530612 174.338848,6.94912415 176.967347,20.3836735 C179.595846,33.8182228 175.114286,49.1061224 167.702041,52.8122449 C160.289796,56.5183673 143.973594,46.9829057 138.053061,42.6204082 C132.132529,38.2579106 130.640816,32.0822384 134.346939,26.8693878 Z"></path>
        <path tabindex="22" id="teeth-lower-left-1" d="M181.6,3.70612245 C194.571429,8.38218384e-15 217.734694,-0.926530612 224.220408,2.77959184 C230.706122,6.48571429 219.587755,14.8244898 216.808163,25.9428571 C214.028571,37.0612245 192.718367,44.4294252 189.012245,31.5020408 C185.306122,18.5746565 168.628571,7.4122449 181.6,3.70612245 Z"></path>
    </g>
</svg>