<svg width="440" height="750" viewBox="0 0 440 750" xmlns="http://www.w3.org/2000/svg" id="teeth-diagram">
    <title>Teeth</title>
    <g id="teeth-lower-right" transform="translate(125.521, 591.157) scale(1, -1) translate(-125.521, -591.157) translate(31.021, 438.657)">
        <path tabindex="21" jaw="lower" side="right" tooth="7" d="M52.507,251.053 C58.136,259.128 51.702,280.662 54.919,289.635 C58.136,298.607 43.661,304.888 43.661,304.888 L8.278,300.402 C8.278,300.402 0.701,297.932 0.236,289.635 C-0.228,281.337 3.613,273.351 6.669,271.690 C3.613,259.128 1.040,251.053 10.690,244.772 C20.340,238.492 46.878,242.978 52.507,251.053 Z"></path>
        <path tabindex="20" jaw="lower" side="right" tooth="6" d="M61.352,211.107 C65.373,220.977 60.484,232.641 49.290,236.230 C38.096,239.819 28.146,241.847 17.928,233.538 C7.710,225.229 9.082,210.210 9.886,190.470 C10.690,170.731 8.107,167.717 25.969,163.553 C43.831,159.389 56.071,169.162 63.765,177.909 C71.459,186.655 66.982,200.956 61.352,211.107 Z"></path>
        <path tabindex="19" jaw="lower" side="right" tooth="5" d="M65.373,116.049 C25.165,105.282 15.515,158.219 50.898,163.603 C65.373,160.014 77.436,150.144 77.436,150.144 L78.240,140.274 C78.240,140.274 70.198,125.021 65.373,116.049 Z"></path>
        <path tabindex="18" jaw="lower" side="right" tooth="4" d="M90.302,77.604 C83.065,74.912 70.198,72.220 59.744,76.707 C49.290,81.193 46.073,96.446 61.352,109.905 C76.632,123.363 80.466,119.292 87.890,116.185 C95.313,113.079 99.148,104.521 93.519,96.446 C87.890,88.371 97.540,80.296 90.302,77.604 Z"></path>
        <path tabindex="17" jaw="lower" side="right" tooth="3" d="M86.282,39.052 C93.872,34.111 101.950,32.596 109.602,42.641 C117.254,52.685 117.644,60.586 113.623,73.147 C109.602,85.708 95.514,75.603 89.498,73.147 C83.482,70.691 74.219,71.352 80.652,61.483 C87.086,51.613 78.691,43.992 86.282,39.052 Z"></path>
        <path tabindex="16" jaw="lower" side="right" tooth="2" d="M108.798,25.653 C112.015,20.605 124.523,13.989 129.706,11.297 C134.890,8.605 143.508,6.362 145.790,19.372 C148.071,32.382 144.181,47.187 137.748,50.776 C131.315,54.365 117.153,45.131 112.015,40.906 C106.876,36.681 105.581,30.701 108.798,25.653 Z"></path>
        <path tabindex="15" jaw="lower" side="right" tooth="1" d="M149.810,3.413 C161.069,-0.175 181.173,-1.072 186.802,2.516 C192.431,6.105 182.781,14.180 180.369,24.947 C177.956,35.714 159.460,42.849 156.244,30.331 C153.027,17.812 138.552,7.002 149.810,3.413 Z"></path>
    </g>
    <g id="teeth-lower-left" transform="translate(317.374, 591.157) scale(-1, -1) translate(-317.374, -591.157) translate(222.374, 438.657)">
        <path tabindex="28" jaw="lower" side="left" tooth="7" d="M53.078,251.053 C58.707,259.128 52.274,280.662 55.491,289.635 C58.707,298.607 44.232,304.888 44.232,304.888 L8.849,300.402 C8.849,300.402 1.272,297.932 0.807,289.635 C0.343,281.337 4.184,273.351 7.241,271.690 C4.184,259.128 1.612,251.053 11.262,244.772 C20.912,238.492 47.449,242.978 53.078,251.053 Z" fill="#0000FF"></path>
        <path tabindex="27" jaw="lower" side="left" tooth="6" d="M61.810,211.107 C65.831,220.977 60.941,232.641 49.748,236.230 C38.554,239.819 28.603,241.847 18.385,233.538 C8.167,225.229 9.539,210.210 10.344,190.470 C11.148,170.731 8.565,167.717 26.427,163.553 C44.289,159.389 56.529,169.162 64.222,177.909 C71.916,186.655 67.439,200.956 61.810,211.107 Z"></path>
        <path tabindex="26" jaw="lower" side="left" tooth="5" d="M66.150,116.049 C25.942,105.282 16.292,158.219 51.675,163.603 C66.150,160.014 78.212,150.144 78.212,150.144 L79.017,140.274 C79.017,140.274 70.975,125.021 66.150,116.049 Z"></path>
        <path tabindex="25" jaw="lower" side="left" tooth="4" d="M91.210,77.604 C83.972,74.912 71.106,72.220 60.652,76.707 C50.198,81.193 46.981,96.446 62.260,109.905 C77.539,123.363 81.374,119.292 88.797,116.185 C96.221,113.079 100.056,104.521 94.427,96.446 C88.797,88.371 98.447,80.296 91.210,77.604 Z"></path>
        <path tabindex="24" jaw="lower" side="left" tooth="3" d="M87.450,39.052 C95.040,34.111 103.118,32.596 110.770,42.641 C118.422,52.685 118.812,60.586 114.791,73.147 C110.770,85.708 96.682,75.603 90.666,73.147 C84.650,70.691 75.387,71.352 81.820,61.483 C88.254,51.613 79.859,43.992 87.450,39.052 Z"></path>
        <path tabindex="23" jaw="lower" side="left" tooth="2" d="M109.907,25.653 C113.124,20.605 125.632,13.989 130.816,11.297 C135.999,8.605 144.618,6.362 146.899,19.372 C149.180,32.382 145.291,47.187 138.857,50.776 C132.424,54.365 118.263,45.131 113.124,40.906 C107.985,36.681 106.691,30.701 109.907,25.653 Z"></path>
        <path tabindex="22" jaw="lower" side="left" tooth="1" d="M150.799,3.413 C162.057,-0.175 182.161,-1.072 187.790,2.516 C193.420,6.105 183.770,14.180 181.357,24.947 C178.945,35.714 160.449,42.849 157.232,30.331 C154.016,17.812 139.541,7.002 150.799,3.413 Z"></path>
    </g>
    <g id="teeth-lower-lines" transform="translate(221.000, 579.933) scale(1, -1) translate(-221.000, -579.933) translate(88.000, 437.433)" stroke="#D0011B">
        <!-- Dental labs don't usually need a diagram of the *back* of a *lower* denture, so we'll hide this group for now -->
        <g transform="translate(0.000, 16.783)" display="none">
            <g>
                <path jaw="lower" right="7" left="7" d="M2.842e-14,267.65 C45.05,267.65 69.164,175.783 135.15,175.783 C201.135,175.783 222.6,267.65 265,267.65"></path>
                <path jaw="lower" right="7" left="6" d="M0,203.166 C45.05,203.166 70.048,140.45 136.033,140.45 C202.018,140.45 220.833,267.65 263.233,267.65" transform="translate(131.616, 204.050) scale(-1, 1) translate(-131.616, -204.050) "></path>
                <path jaw="lower" right="7" left="5" d="M2.842e-14,267.65 C90.983,267.65 68.016,131.616 125.433,121.016 C182.85,110.416 212.883,142.216 257.05,128.966"></path>
                <path jaw="lower" right="7" left="4" d="M2.842e-14,267.65 C97.166,267.65 71.55,134.266 136.916,113.066 C202.283,91.866 201.4,104.233 240.266,88.333"></path>
                <path jaw="lower" right="7" left="3" d="M2.842e-14,267.65 C99.807,267.65 65.366,165.183 118.366,121.9 C171.366,78.616 192.566,83.916 220.833,48.583"></path>
                <path jaw="lower" right="7" left="2" d="M2.842e-14,267.65 C99.807,267.65 78.616,178.433 126.316,118.366 C174.016,58.3 175.783,45.05 198.75,19.433"></path>
                <path jaw="lower" right="7" left="1" d="M0,267.65 C99.807,267.65 145.75,81.266 169.6,0"></path>
            </g>
            <g transform="translate(1.766, 0.000)">
                <path jaw="lower" right="6" left="7" d="M0,203.166 C45.05,203.166 70.048,140.45 136.033,140.45 C202.018,140.45 220.833,267.65 263.233,267.65"></path>
                <path jaw="lower" right="6" left="6" d="M2.842e-14,203.166 C45.05,203.166 64.748,151.05 130.733,151.05 C196.718,151.05 219.066,209.35 260.583,203.166"></path>
                <path jaw="lower" right="6" left="5" d="M2.842e-14,203.166 C90.983,203.166 65.366,103.35 122.783,92.75 C180.2,82.15 211.116,142.216 255.283,128.966"></path>
                <path jaw="lower" right="6" left="4" d="M2.842e-14,204.05 C97.166,204.05 65.366,132.5 130.733,111.3 C196.1,90.1 199.633,104.233 238.5,88.333"></path>
                <path jaw="lower" right="6" left="3" d="M2.842e-14,204.05 C99.807,204.05 59.183,144.866 112.183,101.583 C165.183,58.3 190.8,83.916 219.066,48.583"></path>
                <path jaw="lower" right="6" left="2" d="M2.842e-14,204.05 C99.807,204.05 61.833,158.116 109.533,98.05 C157.233,37.983 174.016,45.05 196.983,19.433"></path>
                <path jaw="lower" right="6" left="1" d="M1.421e-14,204.05 C99.807,204.05 143.983,81.266 167.833,0"></path>
            </g>
            <g transform="translate(7.950, 0.000)">
                <path jaw="lower" right="5" left="7" d="M5.684e-14,267.65 C90.983,267.65 68.016,131.616 125.433,121.016 C182.85,110.416 212.883,142.216 257.05,128.966" transform="translate(128.525, 193.231) scale(-1, 1) translate(-128.525, -193.231) "></path>
                <path jaw="lower" right="5" left="6" d="M5.684e-14,203.166 C90.983,203.166 65.366,103.35 122.783,92.75 C180.2,82.15 211.116,142.216 255.283,128.966" transform="translate(127.641, 147.327) scale(-1, 1) translate(-127.641, -147.327) "></path>
                <path jaw="lower" right="5" left="5" d="M5.684e-14,128.966 C71.55,138.683 67.133,63.6 124.55,63.6 C181.966,63.6 186.383,138.683 249.1,128.966"></path>
                <path jaw="lower" right="5" left="4" d="M5.684e-14,129.85 C53.883,136.033 70.666,76.85 113.95,66.25 C157.233,55.65 193.45,104.233 232.316,88.333"></path>
                <path jaw="lower" right="5" left="3" d="M5.684e-14,129.85 C62.716,135.15 66.25,115.716 110.416,86.566 C154.583,57.416 184.616,83.916 212.883,48.583"></path>
                <path jaw="lower" right="5" left="2" d="M5.684e-14,128.966 C44.166,128.966 57.416,123.666 95.4,74.261 C133.383,24.856 167.833,45.05 190.8,19.433"></path>
                <path jaw="lower" right="5" left="1" d="M4.263e-14,128.966 C99.807,128.966 137.8,81.266 161.65,0"></path>
            </g>
            <g transform="translate(23.850, 0.000)">
                <path jaw="lower" right="4" left="7" d="M2.842e-14,267.65 C97.166,267.65 71.55,134.266 136.916,113.066 C202.283,91.866 201.4,104.233 240.266,88.333" transform="translate(120.133, 177.991) scale(-1, 1) translate(-120.133, -177.991) "></path>
                <path jaw="lower" right="4" left="6" d="M2.842e-14,204.05 C97.166,204.05 65.366,132.5 130.733,111.3 C196.1,90.1 199.633,104.233 238.5,88.333" transform="translate(119.250, 146.191) scale(-1, 1) translate(-119.250, -146.191) "></path>
                <path jaw="lower" right="4" left="5" d="M2.842e-14,129.85 C53.883,136.033 70.666,76.85 113.95,66.25 C157.233,55.65 193.45,104.233 232.316,88.333" transform="translate(116.158, 97.511) scale(-1, 1) translate(-116.158, -97.511) "></path>
                <path jaw="lower" right="4" left="4" d="M0,88.333 C50.35,106.883 64.483,58.3 108.208,58.3 C151.933,58.3 177.55,104.233 216.416,88.333"></path>
                <path jaw="lower" right="4" left="3" d="M-1.421e-14,88.333 C34.45,106.883 44.166,96.283 88.333,67.133 C132.5,37.983 168.716,83.916 196.983,48.583"></path>
                <path jaw="lower" right="4" left="2" d="M2.842e-14,88.333 C34.45,100.7 50.35,101.583 77.733,62.716 C105.116,23.85 151.05,55.65 174.9,19.433"></path>
                <path jaw="lower" right="4" left="1" d="M1.421e-14,88.333 C35.132,103.525 61.123,81.525 87.45,62.716 C110.105,46.529 134.718,37.588 145.75,0"></path>
            </g>
            <g transform="translate(44.166, 0.000)">
                <path jaw="lower" right="3" left="7" d="M0,267.65 C99.807,267.65 65.366,165.183 118.366,121.9 C171.366,78.616 192.566,83.916 220.833,48.583" transform="translate(110.416, 158.116) scale(-1, 1) translate(-110.416, -158.116) "></path>
                <path jaw="lower" right="3" left="6" d="M0,204.05 C99.807,204.05 59.183,144.866 112.183,101.583 C165.183,58.3 190.8,83.916 219.066,48.583" transform="translate(109.533, 126.316) scale(-1, 1) translate(-109.533, -126.316) "></path>
                <path jaw="lower" right="3" left="5" d="M0,129.85 C62.716,135.15 66.25,115.716 110.416,86.566 C154.583,57.416 184.616,83.916 212.883,48.583" transform="translate(106.441, 89.652) scale(-1, 1) translate(-106.441, -89.652) "></path>
                <path jaw="lower" right="3" left="4" d="M-4.263e-14,88.333 C34.45,106.883 44.166,96.283 88.333,67.133 C132.5,37.983 168.716,83.916 196.983,48.583" transform="translate(98.491, 73.072) scale(-1, 1) translate(-98.491, -73.072) "></path>
                <path jaw="lower" right="3" left="3" d="M-2.842e-14,48.583 C34.45,78.616 44.166,38.866 88.333,38.866 C132.5,38.866 146.633,76.85 176.666,48.583"></path>
                <path jaw="lower" right="3" left="2" d="M-2.842e-14,49.385 C13.25,64.483 47.7,70.504 70.666,49.385 C93.633,28.266 130.733,55.65 154.583,19.433"></path>
                <path jaw="lower" right="3" left="1" d="M-2.842e-14,49.466 C24.733,71.55 43.457,58.559 69.783,39.75 C92.438,23.563 114.401,37.588 125.433,0"></path>
            </g>
            <g transform="translate(66.250, 0.000)">
                <path jaw="lower" right="2" left="7" d="M2.842e-14,267.65 C99.807,267.65 78.616,178.433 126.316,118.366 C174.016,58.3 175.783,45.05 198.75,19.433" transform="translate(99.375, 143.541) scale(-1, 1) translate(-99.375, -143.541) "></path>
                <path jaw="lower" right="2" left="6" d="M2.842e-14,204.05 C99.807,204.05 61.833,158.116 109.533,98.05 C157.233,37.983 174.016,45.05 196.983,19.433" transform="translate(98.491, 111.741) scale(-1, 1) translate(-98.491, -111.741) "></path>
                <path jaw="lower" right="2" left="5" d="M2.842e-14,128.966 C44.166,128.966 57.416,123.666 95.4,74.261 C133.383,24.856 167.833,45.05 190.8,19.433" transform="translate(95.400, 74.200) scale(-1, 1) translate(-95.400, -74.200) "></path>
                <path jaw="lower" right="2" left="4" d="M2.842e-14,88.333 C34.45,100.7 50.35,101.583 77.733,62.716 C105.116,23.85 151.05,55.65 174.9,19.433" transform="translate(87.450, 57.672) scale(-1, 1) translate(-87.450, -57.672) "></path>
                <path jaw="lower" right="2" left="3" d="M-2.842e-14,49.385 C13.25,64.483 47.7,70.504 70.666,49.385 C93.633,28.266 130.733,55.65 154.583,19.433" transform="translate(77.291, 41.246) scale(-1, 1) translate(-77.291, -41.246) "></path>
                <path jaw="lower" right="2" left="2" d="M-2.842e-14,19.433 C30.033,55.65 42.4,28.927 66.25,28.927 C90.1,28.927 108.65,55.65 132.5,19.433"></path>
                <path jaw="lower" right="2" left="1" d="M-2.842e-14,20.316 C15.016,37.1 39.308,40.633 54.766,28.266 C70.225,15.9 92.318,37.588 103.35,0"></path>
            </g>
            <g transform="translate(95.400, 0.000)">
                <path jaw="lower" right="1" left="7" d="M2.842e-14,267.65 C99.807,267.65 145.75,81.266 169.6,0" transform="translate(84.800, 133.825) scale(-1, 1) translate(-84.800, -133.825) "></path>
                <path jaw="lower" right="1" left="6" d="M0,204.05 C99.807,204.05 143.983,81.266 167.833,0" transform="translate(83.916, 102.025) scale(-1, 1) translate(-83.916, -102.025) "></path>
                <path jaw="lower" right="1" left="5" d="M0,128.966 C99.807,128.966 137.8,81.266 161.65,0" transform="translate(80.825, 64.483) scale(-1, 1) translate(-80.825, -64.483) "></path>
                <path jaw="lower" right="1" left="4" d="M0,88.333 C35.132,103.525 61.123,81.525 87.45,62.716 C110.105,46.529 134.718,37.588 145.75,0" transform="translate(72.875, 46.703) scale(-1, 1) translate(-72.875, -46.703) "></path>
                <path jaw="lower" right="1" left="3" d="M0,49.466 C24.733,71.55 43.457,58.559 69.783,39.75 C92.438,23.563 114.401,37.588 125.433,0" transform="translate(62.716, 30.528) scale(-1, 1) translate(-62.716, -30.528) "></path>
                <path jaw="lower" right="1" left="2" d="M0,20.316 C15.016,37.1 39.308,40.633 54.766,28.266 C70.225,15.9 92.318,37.588 103.35,0" transform="translate(51.675, 17.822) scale(-1, 1) translate(-51.675, -17.822) "></path>
                <path jaw="lower" right="1" left="1" d="M0,0 C5.3,37.983 65.366,38.866 74.2,0"></path>
            </g>
        </g>
        <g>
            <g>
                <path jaw="lower" side="right" colet="7" d="M0,283.55 C4.416,280.9 6.183,279.133 7.066,272.95 C7.95,266.766 7.066,268.533 6.183,258.816 C5.3,249.1 11.483,231.433 1.766,219.95"></path>
                <path jaw="lower" side="right" colet="6" d="M7.95,145.75 C21.2,152.816 25.616,176.666 14.133,191.683 C18.55,198.75 13.25,214.65 1.766,219.95"></path>
                <path jaw="lower" side="right" colet="5" d="M7.95,145.75 C22.966,142.216 30.033,131.616 30.033,131.616 L30.033,117.483 C30.033,117.483 28.929,110.196 23.85,105.116"></path>
                <path jaw="lower" side="right" colet="4" d="M44.166,65.366 C44.166,73.316 50.35,78.616 46.816,90.1 C43.283,101.583 30.916,106 23.85,105.116"></path>
                <path jaw="lower" side="right" colet="3" d="M44.166,65.366 C54.766,73.316 71.55,57.416 66.25,36.216"></path>
                <path jaw="lower" side="right" colet="2" d="M95.4,16.783 C97.166,33.566 79.5,46.816 66.25,36.216"></path>
                <path jaw="lower" side="right" colet="1" d="M95.4,16.783 C96.283,27.383 114.634,26.991 123.679,17.886 C128.593,12.938 128.966,8.833 132.5,0"></path>
            </g>
            <g transform="translate(198.500, 142.000) scale(-1, 1) translate(-198.500, -142.000) translate(132.000, 0.000)">
                <path jaw="lower" side="left" colet="7" d="M0,283.55 C4.416,280.9 6.183,279.133 7.066,272.95 C7.95,266.766 7.066,268.533 6.183,258.816 C5.3,249.1 11.483,231.433 1.766,219.95"></path>
                <path jaw="lower" side="left" colet="6" d="M7.95,145.75 C21.2,152.816 25.616,176.666 14.133,191.683 C18.55,198.75 13.25,214.65 1.766,219.95"></path>
                <path jaw="lower" side="left" colet="5" d="M7.95,145.75 C22.966,142.216 30.033,131.616 30.033,131.616 L30.033,117.483 C30.033,117.483 28.929,110.196 23.85,105.116"></path>
                <path jaw="lower" side="left" colet="4" d="M44.166,65.366 C44.166,73.316 50.35,78.616 46.816,90.1 C43.283,101.583 30.916,106 23.85,105.116"></path>
                <path jaw="lower" side="left" colet="3" d="M44.166,65.366 C54.766,73.316 71.55,57.416 66.25,36.216"></path>
                <path jaw="lower" side="left" colet="2" d="M95.4,16.783 C97.166,33.566 79.5,46.816 66.25,36.216"></path>
                <path jaw="lower" side="left" colet="1" d="M95.4,16.783 C96.283,27.383 114.634,26.991 123.679,17.886 C128.593,12.938 128.966,8.833 132.5,0"></path>
            </g>
        </g>
    </g>
    <g id="teeth-upper-right" transform="translate(8.000, 9.000)">
        <path tabindex="7" jaw="upper" side="right" tooth="7" d="M59.008,281 C65.266,290 58.114,314 61.690,324 C65.266,334 49.173,341 49.173,341 L9.834,336 C9.834,336 1.410,333.247 0.894,324 C0.377,314.752 4.648,305.851 8.046,304 C4.648,290 1.788,281 12.516,274 C23.245,267 52.75,272 59.008,281 Z" fill="#FF0000"></path>
        <path tabindex="6" jaw="upper" side="right" tooth="6" d="M68.843,237 C73.313,248 67.877,261 55.432,265 C42.986,269 31.923,271.260 20.563,262 C9.203,252.739 10.728,236 11.622,214 C12.516,192 9.645,188.641 29.504,184 C49.363,179.358 62.971,190.251 71.525,200 C80.079,209.748 75.101,225.686 68.843,237 Z"></path>
        <path tabindex="5" jaw="upper" side="right" tooth="5" d="M73.313,130 C28.610,118 17.881,177 57.220,183 C73.313,179 86.724,168 86.724,168 L87.618,157 C87.618,157 78.677,140 73.313,130 Z"></path>
        <path tabindex="4" jaw="upper" side="right" tooth="4" d="M101.029,87 C92.983,84 78.677,81 67.055,86 C55.432,91 51.855,108 68.843,123 C85.830,138 90.094,133.461 98.347,130 C106.600,126.538 110.864,117 104.605,108 C98.347,99 109.076,90 101.029,87 Z"></path>
        <path tabindex="3" jaw="upper" side="right" tooth="3" d="M96.559,44 C104.998,38.493 113.979,36.805 122.487,48 C130.994,59.194 131.427,68 126.957,82 C122.487,96 106.824,84.736 100.135,82 C93.447,79.263 83.148,80 90.300,69 C97.453,58 88.120,49.506 96.559,44 Z"></path>
        <path tabindex="2" jaw="upper" side="right" tooth="2" d="M121.593,29 C125.169,23.373 139.076,16 144.838,13 C150.601,10 160.183,7.500 162.720,22 C165.256,36.499 160.932,53 153.779,57 C146.627,61 130.882,50.708 125.169,46 C119.456,41.291 118.016,34.626 121.593,29 Z"></path>
        <path tabindex="1" jaw="upper" side="right" tooth="1" d="M167.190,4 C179.707,-5.551e-15 202.059,-1 208.317,3 C214.576,7 203.847,16 201.165,28 C198.483,40 177.919,47.952 174.343,34 C170.766,20.047 154.673,8 167.190,4 Z"></path>
    </g>
    <g id="teeth-upper-left" transform="translate(326.500, 179.500) scale(-1, 1) translate(-326.500, -179.500) translate(221.000, 9.000)" stroke="#000000">
        <path tabindex="14" jaw="upper" side="left" tooth="7" d="M59.008,281 C65.266,290 58.114,314 61.690,324 C65.266,334 49.173,341 49.173,341 L9.834,336 C9.834,336 1.410,333.247 0.894,324 C0.377,314.752 4.648,305.851 8.046,304 C4.648,290 1.788,281 12.516,274 C23.245,267 52.75,272 59.008,281 Z" fill="#00FF00"></path>
        <path tabindex="13" jaw="upper" side="left" tooth="6" d="M68.843,237 C73.313,248 67.877,261 55.432,265 C42.986,269 31.923,271.260 20.563,262 C9.203,252.739 10.728,236 11.622,214 C12.516,192 9.645,188.641 29.504,184 C49.363,179.358 62.971,190.251 71.525,200 C80.079,209.748 75.101,225.686 68.843,237 Z"></path>
        <path tabindex="12" jaw="upper" side="left" tooth="5" d="M73.313,130 C28.610,118 17.881,177 57.220,183 C73.313,179 86.724,168 86.724,168 L87.618,157 C87.618,157 78.677,140 73.313,130 Z"></path>
        <path tabindex="11" jaw="upper" side="left" tooth="4" d="M101.029,87 C92.983,84 78.677,81 67.055,86 C55.432,91 51.855,108 68.843,123 C85.830,138 90.094,133.461 98.347,130 C106.600,126.538 110.864,117 104.605,108 C98.347,99 109.076,90 101.029,87 Z"></path>
        <path tabindex="10" jaw="upper" side="left" tooth="3" d="M96.559,44 C104.998,38.493 113.979,36.805 122.487,48 C130.994,59.194 131.427,68 126.957,82 C122.487,96 106.824,84.736 100.135,82 C93.447,79.263 83.148,80 90.300,69 C97.453,58 88.120,49.506 96.559,44 Z"></path>
        <path tabindex="19" jaw="upper" side="left" tooth="2" d="M121.593,29 C125.169,23.373 139.076,16 144.838,13 C150.601,10 160.183,7.500 162.720,22 C165.256,36.499 160.932,53 153.779,57 C146.627,61 130.882,50.708 125.169,46 C119.456,41.291 118.016,34.626 121.593,29 Z"></path>
        <path tabindex="8" jaw="upper" side="left" tooth="1" d="M167.190,4 C179.707,-5.551e-15 202.059,-1 208.317,3 C214.576,7 203.847,16 201.165,28 C198.483,40 177.919,47.952 174.343,34 C170.766,20.047 154.673,8 167.190,4 Z"></path>
    </g>
    <g id="teeth-upper-lines" transform="translate(70.000, 31.000)" stroke="#D0011B">
        <g transform="translate(0.000, 19.000)">
            <g>
                <path jaw="upper" right="7" left="7" d="M2.842e-14,303 C51,303 78.299,199 153,199 C227.700,199 252,303 300,303"></path>
                <path jaw="upper" right="7" left="6" d="M0,230 C51,230 79.299,159 154,159 C228.700,159 250,303 298,303" transform="translate(149.000, 231.000) scale(-1, 1) translate(-149.000, -231.000) "></path>
                <path jaw="upper" right="7" left="5" d="M2.842e-14,303 C103,303 77,149 142,137 C207,125 241,161 291,146"></path>
                <path jaw="upper" right="7" left="4" d="M2.842e-14,303 C110,303 81,152 155,128 C229,104 228,118 272,100"></path>
                <path jaw="upper" right="7" left="3" d="M2.842e-14,303 C112.989,303 74,187 134,138 C194,89 218,95 250,55"></path>
                <path jaw="upper" right="7" left="2" d="M2.842e-14,303 C112.989,303 89,202 143,134 C197,66 199,51 225,22"></path>
                <path jaw="upper" right="7" left="1" d="M1.421e-14,303 C112.989,303 165,92 192,0"></path>
            </g>
            <g transform="translate(2.000, 0.000)">
                <path jaw="upper" right="6" left="7" d="M0,230 C51,230 79.299,159 154,159 C228.700,159 250,303 298,303"></path>
                <path jaw="upper" right="6" left="6" d="M2.842e-14,230 C51,230 73.299,171 148,171 C222.700,171 248,237 295,230"></path>
                <path jaw="upper" right="6" left="5" d="M2.842e-14,230 C103,230 74,117 139,105 C204,93 239,161 289,146"></path>
                <path jaw="upper" right="6" left="4" d="M2.842e-14,231 C110,231 74,150 148,126 C222,102 226,118 270,100"></path>
                <path jaw="upper" right="6" left="3" d="M2.842e-14,231 C112.989,231 67,164 127,115 C187,66 216,95 248,55"></path>
                <path jaw="upper" right="6" left="2" d="M2.842e-14,231 C112.989,231 70,179 124,111 C178,43 197,51 223,22"></path>
                <path jaw="upper" right="6" left="1" d="M1.421e-14,231 C112.989,231 163,92 190,0"></path>
            </g>
            <g transform="translate(9.000, 0.000)">
                <path jaw="upper" right="5" left="7" d="M2.842e-14,303 C103,303 77,149 142,137 C207,125 241,161 291,146" transform="translate(145.500, 218.752) scale(-1, 1) translate(-145.500, -218.752) "></path>
                <path jaw="upper" right="5" left="6" d="M2.842e-14,230 C103,230 74,117 139,105 C204,93 239,161 289,146" transform="translate(144.500, 166.785) scale(-1, 1) translate(-144.500, -166.785) "></path>
                <path jaw="upper" right="5" left="5" d="M2.842e-14,146 C81,157 76,72 141,72 C206,72 211,157 282,146"></path>
                <path jaw="upper" right="5" left="4" d="M2.842e-14,147 C61,154 80,87 129,75 C178,63 219,118 263,100"></path>
                <path jaw="upper" right="5" left="3" d="M2.842e-14,147 C71,153 75,131 125,98 C175,65 209,95 241,55"></path>
                <path jaw="upper" right="5" left="2" d="M2.842e-14,146 C50,146 65,140 108,84.069 C151,28.139 190,51 216,22"></path>
                <path jaw="upper" right="5" left="1" d="M1.421e-14,146 C112.989,146 156,92 183,0"></path>
            </g>
            <g transform="translate(27.000, 0.000)">
                <path jaw="upper" right="4" left="7" d="M2.842e-14,303 C110,303 81,152 155,128 C229,104 228,118 272,100" transform="translate(136.000, 201.500) scale(-1, 1) translate(-136.000, -201.500) "></path>
                <path jaw="upper" right="4" left="6" d="M2.842e-14,231 C110,231 74,150 148,126 C222,102 226,118 270,100" transform="translate(135.000, 165.500) scale(-1, 1) translate(-135.000, -165.500) "></path>
                <path jaw="upper" right="4" left="5" d="M2.842e-14,147 C61,154 80,87 129,75 C178,63 219,118 263,100" transform="translate(131.500, 110.390) scale(-1, 1) translate(-131.500, -110.390) "></path>
                <path jaw="upper" right="4" left="4" d="M0,100 C57,121 73,66 122.5,66 C172,66 201,118 245,100"></path>
                <path jaw="upper" right="4" left="3" d="M-1.421e-14,100 C39,121 50,109 100,76 C150,43 191,95 223,55"></path>
                <path jaw="upper" right="4" left="2" d="M2.842e-14,100 C39,114 57,115 88,71 C119,27 171,63 198,22"></path>
                <path jaw="upper" right="4" left="1" d="M1.421e-14,100 C39.772,117.199 69.196,92.293 99,71 C124.647,52.675 152.511,42.552 165,0"></path>
            </g>
            <g transform="translate(50.000, 0.000)">
                <path jaw="upper" right="3" left="7" d="M2.842e-14,303 C112.989,303 74,187 134,138 C194,89 218,95 250,55" transform="translate(125.000, 179.000) scale(-1, 1) translate(-125.000, -179.000) "></path>
                <path jaw="upper" right="3" left="6" d="M2.842e-14,231 C112.989,231 67,164 127,115 C187,66 216,95 248,55" transform="translate(124.000, 143.000) scale(-1, 1) translate(-124.000, -143.000) "></path>
                <path jaw="upper" right="3" left="5" d="M2.842e-14,147 C71,153 75,131 125,98 C175,65 209,95 241,55" transform="translate(120.500, 101.493) scale(-1, 1) translate(-120.500, -101.493) "></path>
                <path jaw="upper" right="3" left="4" d="M-1.421e-14,100 C39,121 50,109 100,76 C150,43 191,95 223,55" transform="translate(111.500, 82.723) scale(-1, 1) translate(-111.500, -82.723) "></path>
                <path jaw="upper" right="3" left="3" d="M0,55 C39,89 50,44 100,44 C150,44 166,87 200,55"></path>
                <path jaw="upper" right="3" left="2" d="M0,55.908 C15,73 54,79.816 80,55.908 C106,32 148,63 175,22"></path>
                <path jaw="upper" right="3" left="1" d="M0,56 C28,81 49.196,66.293 79,45 C104.647,26.675 129.511,42.552 142,0"></path>
            </g>
            <g transform="translate(75.000, 0.000)">
                <path jaw="upper" right="2" left="7" d="M2.842e-14,303 C112.989,303 89,202 143,134 C197,66 199,51 225,22" transform="translate(112.500, 162.500) scale(-1, 1) translate(-112.500, -162.500) "></path>
                <path jaw="upper" right="2" left="6" d="M2.842e-14,231 C112.989,231 70,179 124,111 C178,43 197,51 223,22" transform="translate(111.500, 126.500) scale(-1, 1) translate(-111.500, -126.500) "></path>
                <path jaw="upper" right="2" left="5" d="M2.842e-14,146 C50,146 65,140 108,84.069 C151,28.139 190,51 216,22" transform="translate(108.000, 84.000) scale(-1, 1) translate(-108.000, -84.000) "></path>
                <path jaw="upper" right="2" left="4" d="M2.842e-14,100 C39,114 57,115 88,71 C119,27 171,63 198,22" transform="translate(99.000, 65.290) scale(-1, 1) translate(-99.000, -65.290) "></path>
                <path jaw="upper" right="2" left="3" d="M0,55.908 C15,73 54,79.816 80,55.908 C106,32 148,63 175,22" transform="translate(87.500, 46.694) scale(-1, 1) translate(-87.500, -46.694) "></path>
                <path jaw="upper" right="2" left="2" d="M0,22 C34,63 48,32.747 75,32.747 C102,32.747 123,63 150,22"></path>
                <path jaw="upper" right="2" left="1" d="M0,23 C17,42 44.5,46 62,32 C79.5,18 104.511,42.552 117,0"></path>
            </g>
            <g transform="translate(108.000, 0.000)">
                <path jaw="upper" right="1" left="7" d="M2.842e-14,303 C112.989,303 165,92 192,0" transform="translate(96.000, 151.500) scale(-1, 1) translate(-96.000, -151.500) "></path>
                <path jaw="upper" right="1" left="6" d="M0,231 C112.989,231 163,92 190,0" transform="translate(95.000, 115.500) scale(-1, 1) translate(-95.000, -115.500) "></path>
                <path jaw="upper" right="1" left="5" d="M0,146 C112.989,146 156,92 183,0" transform="translate(91.500, 73.000) scale(-1, 1) translate(-91.500, -73.000) "></path>
                <path jaw="upper" right="1" left="4" d="M0,100 C39.772,117.199 69.196,92.293 99,71 C124.647,52.675 152.511,42.552 165,0" transform="translate(82.500, 52.871) scale(-1, 1) translate(-82.500, -52.871) "></path>
                <path jaw="upper" right="1" left="3" d="M0,56 C28,81 49.196,66.293 79,45 C104.647,26.675 129.511,42.552 142,0" transform="translate(71.000, 34.560) scale(-1, 1) translate(-71.000, -34.560) "></path>
                <path jaw="upper" right="1" left="2" d="M0,23 C17,42 44.5,46 62,32 C79.5,18 104.511,42.552 117,0" transform="translate(58.500, 20.176) scale(-1, 1) translate(-58.500, -20.176) "></path>
                <path jaw="upper" right="1" left="1" d="M0,0 C6,43 74,44 84,0"></path>
            </g>
        </g>
        <g>
            <g>
                <path jaw="upper" side="right" colet="7" d="M0,321 C5,318 7,316 8,309 C9,302 8,304 7,293 C6,282 13,262 2,249"></path>
                <path jaw="upper" side="right" colet="6" d="M9,165 C24,173 29,200 16,217 C21,225 15,243 2,249"></path>
                <path jaw="upper" side="right" colet="5" d="M9,165 C26,161 34,149 34,149 L34,133 C34,133 32.750,124.750 27,119"></path>
                <path jaw="upper" side="right" colet="4" d="M50,74 C50,83 57,89 53,102 C49,115 35,120 27,119"></path>
                <path jaw="upper" side="right" colet="3" d="M50,74 C62,83 81,65 75,41"></path>
                <path jaw="upper" side="right" colet="2" d="M108,19 C110,38 90,53 75,41"></path>
                <path jaw="upper" side="right" colet="1" d="M108,19 C109,31 129.775,30.555 140.014,20.248 C145.577,14.647 146,10 150,0"></path>
            </g>
            <g transform="translate(225.000, 160.500) scale(-1, 1) translate(-225.000, -160.500) translate(150.000, 0.000)">
                <path jaw="upper" side="left" colet="7" d="M0,321 C5,318 7,316 8,309 C9,302 8,304 7,293 C6,282 13,262 2,249"></path>
                <path jaw="upper" side="left" colet="6" d="M9,165 C24,173 29,200 16,217 C21,225 15,243 2,249"></path>
                <path jaw="upper" side="left" colet="5" d="M9,165 C26,161 34,149 34,149 L34,133 C34,133 32.750,124.750 27,119"></path>
                <path jaw="upper" side="left" colet="4" d="M50,74 C50,83 57,89 53,102 C49,115 35,120 27,119"></path>
                <path jaw="upper" side="left" colet="3" d="M50,74 C62,83 81,65 75,41"></path>
                <path jaw="upper" side="left" colet="2" d="M108,19 C110,38 90,53 75,41"></path>
                <path jaw="upper" side="left" colet="1" d="M108,19 C109,31 129.775,30.555 140.014,20.248 C145.577,14.647 146,10 150,0"></path>
            </g>
        </g>
    </g>
</svg>